<svg width="171" height="22" viewBox="0 0 171 22" fill="none" xmlns="http://www.w3.org/2000/svg">
<g clip-path="url(#clip0_7_110)">
<rect width="171" height="22" fill="white"/>
<path d="M0.96 20.5V19.996L3.168 19.636V2.164L0.96 1.828V1.3H15.408V6.796H14.76L12.912 1.9H5.808V10.54H8.928L10.344 7.06H10.968V14.644H10.344L8.904 11.116H5.808V19.924H13.344L15.312 14.644H15.936V20.5H0.96ZM25.4329 20.98L18.5209 2.164L16.6009 1.828V1.3H23.6329V1.828L21.3769 2.116L26.6569 16.492L31.8409 2.908L29.0809 1.828V1.3H34.2409V1.828L32.4889 2.884L25.6249 20.98H25.4329ZM34.5928 20.5V19.996L36.8008 19.636V2.164L34.5928 1.828V1.3H49.0408V6.796H48.3928L46.5448 1.9H39.4408V10.54H42.5608L43.9768 7.06H44.6008V14.644H43.9768L42.5368 11.116H39.4408V19.924H46.9768L48.9448 14.644H49.5688V20.5H34.5928ZM65.8337 20.74C64.9377 20.74 64.2657 20.524 63.8177 20.092C63.3697 19.66 63.0657 18.924 62.9057 17.884L62.4497 14.668C62.2897 13.58 61.9137 12.732 61.3217 12.124C60.7457 11.5 59.8417 11.188 58.6097 11.188H56.7377V19.636L58.9457 19.996V20.5H51.8897V19.996L54.0977 19.636V2.164L51.8897 1.828V1.3H58.6097C61.2177 1.3 63.1057 1.708 64.2737 2.524C65.4417 3.34 66.0257 4.58 66.0257 6.244C66.0257 8.996 64.3617 10.588 61.0337 11.02V11.164C62.2657 11.34 63.2497 11.78 63.9857 12.484C64.7377 13.188 65.2097 14.124 65.4017 15.292L65.7137 17.356C65.8417 18.252 65.9857 18.86 66.1457 19.18C66.3217 19.5 66.5857 19.66 66.9377 19.66C67.1777 19.66 67.4337 19.588 67.7057 19.444C67.9777 19.284 68.2337 19.084 68.4737 18.844L68.8817 19.276C68.4177 19.804 67.9377 20.18 67.4417 20.404C66.9457 20.628 66.4097 20.74 65.8337 20.74ZM59.4257 10.612C60.5937 10.612 61.4977 10.26 62.1377 9.556C62.7937 8.836 63.1217 7.78 63.1217 6.388V5.884C63.1217 3.228 61.6177 1.9 58.6097 1.9H56.7377V10.612H59.4257ZM72.7196 20.5V19.996L74.9516 19.636V12.34L69.1196 2.164L67.2236 1.828V1.3H74.4476V1.828L72.2156 2.164L77.2556 10.876L81.8876 2.98L79.0076 1.828V1.3H84.3836V1.828L82.5356 3.004L77.5436 11.548V19.636L79.7756 19.996V20.5H72.7196Z" fill="#757575"/>
<path d="M97.872 20.98L91.104 2.164L89.496 1.828V1.3H96.168V1.828L93.984 2.164L99.144 16.372L102.648 7.204L100.848 2.164L98.64 1.828V1.3H105.768V1.828L103.704 2.116L108.912 16.348L114.072 2.908L111.36 1.828V1.3H116.52V1.828L114.696 2.884L107.832 20.98H107.64L102.96 8.044L98.064 20.98H97.872ZM116.905 20.5V19.996L119.113 19.636V2.164L116.905 1.828V1.3H131.353V6.796H130.705L128.857 1.9H121.753V10.54H124.873L126.289 7.06H126.913V14.644H126.289L124.849 11.116H121.753V19.924H129.289L131.257 14.644H131.881V20.5H116.905ZM132.57 20.5V19.996L134.922 19.036L141.858 0.819999H142.242L148.794 19.636L151.002 19.996V20.5H143.946V19.996L145.914 19.684L143.874 13.996H137.49L135.546 19.036L137.706 19.996V20.5H132.57ZM137.682 13.492H143.706L140.826 5.044L137.682 13.492ZM165.396 20.74C164.5 20.74 163.828 20.524 163.38 20.092C162.932 19.66 162.628 18.924 162.468 17.884L162.012 14.668C161.852 13.58 161.476 12.732 160.884 12.124C160.308 11.5 159.404 11.188 158.172 11.188H156.3V19.636L158.508 19.996V20.5H151.452V19.996L153.66 19.636V2.164L151.452 1.828V1.3H158.172C160.78 1.3 162.668 1.708 163.836 2.524C165.004 3.34 165.588 4.58 165.588 6.244C165.588 8.996 163.924 10.588 160.596 11.02V11.164C161.828 11.34 162.812 11.78 163.548 12.484C164.3 13.188 164.772 14.124 164.964 15.292L165.276 17.356C165.404 18.252 165.548 18.86 165.708 19.18C165.884 19.5 166.148 19.66 166.5 19.66C166.74 19.66 166.996 19.588 167.268 19.444C167.54 19.284 167.796 19.084 168.036 18.844L168.444 19.276C167.98 19.804 167.5 20.18 167.004 20.404C166.508 20.628 165.972 20.74 165.396 20.74ZM158.988 10.612C160.156 10.612 161.06 10.26 161.7 9.556C162.356 8.836 162.684 7.78 162.684 6.388V5.884C162.684 3.228 161.18 1.9 158.172 1.9H156.3V10.612H158.988Z" fill="#212121"/>
</g>
<defs>
<clipPath id="clip0_7_110">
<rect width="171" height="22" fill="white"/>
</clipPath>
</defs>
</svg>
