<svg width="159" height="22" viewBox="0 0 159 22" fill="none" xmlns="http://www.w3.org/2000/svg">
<g clip-path="url(#clip0_6_3)">
<rect width="159" height="22" fill="white"/>
<path d="M0 0H16C19.3137 0 22 2.68629 22 6V22H6C2.68629 22 0 19.3137 0 16V0Z" fill="black"/>
<path d="M5.204 19.5V2.988H16.772V6.204H9.38V9.588H15.644V12.756H9.38V16.284H16.772V19.5H5.204Z" fill="white"/>
<path d="M31.184 19.5L26.24 2.988H30.512L33.92 15.084H34.088L37.472 2.988H41.648L36.704 19.5H31.184ZM43.6181 19.5V2.988H55.1861V6.204H47.7941V9.588H54.0581V12.756H47.7941V16.284H55.1861V19.5H43.6181ZM58.1728 19.5V2.988H66.3568C67.4288 2.988 68.2928 3.108 68.9488 3.348C69.6208 3.572 70.1248 3.916 70.4608 4.38C70.8128 4.828 71.0448 5.388 71.1568 6.06C71.2848 6.716 71.3488 7.468 71.3488 8.316C71.3488 8.94 71.3008 9.572 71.2048 10.212C71.1088 10.836 70.9008 11.412 70.5807 11.94C70.2768 12.452 69.8048 12.844 69.1648 13.116L71.6608 19.5H67.3168L64.9888 12.9L66.0448 13.476C65.9008 13.556 65.7488 13.604 65.5888 13.62C65.4448 13.636 65.2608 13.644 65.0368 13.644H62.3488V19.5H58.1728ZM62.3488 10.548H64.7488C65.2928 10.548 65.7248 10.524 66.0448 10.476C66.3808 10.412 66.6288 10.3 66.7888 10.14C66.9488 9.98 67.0528 9.756 67.1008 9.468C67.1488 9.18 67.1728 8.812 67.1728 8.364C67.1728 7.9 67.1488 7.524 67.1008 7.236C67.0688 6.948 66.9728 6.732 66.8128 6.588C66.6688 6.428 66.4288 6.316 66.0928 6.252C65.7728 6.188 65.3248 6.156 64.7488 6.156H62.3488V10.548ZM77.7393 19.5V13.836L72.2433 2.988H76.5393L79.8273 9.924H79.9953L83.2353 2.988H87.4353L81.9153 13.836V19.5H77.7393ZM91.5086 19.5L87.8366 2.988H91.9886L94.3646 14.772H94.5566L97.2446 2.988H101.565L104.301 14.772H104.493L106.677 2.988H110.829L107.157 19.5H101.925L99.4046 9.084H99.2366L96.7406 19.5H91.5086ZM112.899 19.5V2.988H124.467V6.204H117.075V9.588H123.339V12.756H117.075V16.284H124.467V19.5H112.899ZM125.942 19.5L131.174 2.988H136.862L142.118 19.5H137.894L136.91 16.26H131.03L130.07 19.5H125.942ZM131.918 13.116H135.998L134.03 6.588H133.862L131.918 13.116ZM144.024 19.5V2.988H152.208C153.28 2.988 154.144 3.108 154.8 3.348C155.472 3.572 155.976 3.916 156.312 4.38C156.664 4.828 156.896 5.388 157.008 6.06C157.136 6.716 157.2 7.468 157.2 8.316C157.2 8.94 157.152 9.572 157.056 10.212C156.96 10.836 156.752 11.412 156.432 11.94C156.128 12.452 155.656 12.844 155.016 13.116L157.512 19.5H153.168L150.84 12.9L151.896 13.476C151.752 13.556 151.6 13.604 151.44 13.62C151.296 13.636 151.112 13.644 150.888 13.644H148.2V19.5H144.024ZM148.2 10.548H150.6C151.144 10.548 151.576 10.524 151.896 10.476C152.232 10.412 152.48 10.3 152.64 10.14C152.8 9.98 152.904 9.756 152.952 9.468C153 9.18 153.024 8.812 153.024 8.364C153.024 7.9 153 7.524 152.952 7.236C152.92 6.948 152.824 6.732 152.664 6.588C152.52 6.428 152.28 6.316 151.944 6.252C151.624 6.188 151.176 6.156 150.6 6.156H148.2V10.548Z" fill="black"/>
</g>
<defs>
<clipPath id="clip0_6_3">
<rect width="159" height="22" fill="white"/>
</clipPath>
</defs>
</svg>
