<svg width="156" height="22" viewBox="0 0 156 22" fill="none" xmlns="http://www.w3.org/2000/svg">
<g clip-path="url(#clip0_6_3)">
<rect width="156" height="22" fill="white"/>
<path d="M1.968 19.5V2.988H13.248V5.772H5.376V9.78H12.12V12.564H5.376V16.716H13.248V19.5H1.968ZM20.2661 19.5L14.9861 2.988H18.4901L22.5221 15.876H22.6421L26.6261 2.988H30.0581L24.7781 19.5H20.2661ZM32.4602 19.5V2.988H43.7402V5.772H35.8682V9.78H42.6122V12.564H35.8682V16.716H43.7402V19.5H32.4602ZM47.0383 19.5V2.988H54.9343C56.0063 2.988 56.8623 3.108 57.5023 3.348C58.1583 3.588 58.6543 3.94 58.9903 4.404C59.3263 4.852 59.5503 5.404 59.6623 6.06C59.7903 6.7 59.8543 7.42 59.8543 8.22C59.8543 8.78 59.8063 9.38 59.7103 10.02C59.6143 10.66 59.3983 11.252 59.0623 11.796C58.7423 12.34 58.2303 12.74 57.5263 12.996L60.1663 19.5H56.5663L54.0703 12.876L54.9103 13.332C54.7983 13.38 54.6623 13.412 54.5023 13.428C54.3583 13.444 54.1903 13.452 53.9983 13.452H50.4463V19.5H47.0383ZM50.4463 10.692H53.5663C54.2383 10.692 54.7663 10.652 55.1503 10.572C55.5343 10.492 55.8223 10.364 56.0143 10.188C56.2063 9.996 56.3263 9.748 56.3743 9.444C56.4223 9.124 56.4463 8.716 56.4463 8.22C56.4463 7.724 56.4223 7.316 56.3743 6.996C56.3263 6.676 56.2143 6.428 56.0383 6.252C55.8623 6.076 55.5743 5.948 55.1743 5.868C54.7903 5.788 54.2623 5.748 53.5903 5.748H50.4463V10.692ZM66.6506 19.5V13.644L60.9866 2.988H64.5626L68.3546 10.332H68.5226L72.2906 2.988H75.7466L70.0586 13.644V19.5H66.6506Z" fill="black"/>
<rect x="79" width="77" height="22" rx="4" fill="black"/>
<path d="M86.032 19.5L82.36 2.988H86.512L88.888 14.772H89.08L91.768 2.988H96.088L98.824 14.772H99.016L101.2 2.988H105.352L101.68 19.5H96.448L93.928 9.084H93.76L91.264 19.5H86.032ZM107.423 19.5V2.988H118.991V6.204H111.599V9.588H117.863V12.756H111.599V16.284H118.991V19.5H107.423ZM120.465 19.5L125.697 2.988H131.385L136.641 19.5H132.417L131.433 16.26H125.553L124.593 19.5H120.465ZM126.441 13.116H130.521L128.553 6.588H128.385L126.441 13.116ZM138.548 19.5V2.988H146.732C147.804 2.988 148.668 3.108 149.324 3.348C149.996 3.572 150.5 3.916 150.836 4.38C151.188 4.828 151.42 5.388 151.532 6.06C151.66 6.716 151.724 7.468 151.724 8.316C151.724 8.94 151.676 9.572 151.58 10.212C151.484 10.836 151.276 11.412 150.956 11.94C150.652 12.452 150.18 12.844 149.54 13.116L152.036 19.5H147.692L145.364 12.9L146.42 13.476C146.276 13.556 146.124 13.604 145.964 13.62C145.82 13.636 145.636 13.644 145.412 13.644H142.724V19.5H138.548ZM142.724 10.548H145.124C145.668 10.548 146.1 10.524 146.42 10.476C146.756 10.412 147.004 10.3 147.164 10.14C147.324 9.98 147.428 9.756 147.476 9.468C147.524 9.18 147.548 8.812 147.548 8.364C147.548 7.9 147.524 7.524 147.476 7.236C147.444 6.948 147.348 6.732 147.188 6.588C147.044 6.428 146.804 6.316 146.468 6.252C146.148 6.188 145.7 6.156 145.124 6.156H142.724V10.548Z" fill="white"/>
</g>
<defs>
<clipPath id="clip0_6_3">
<rect width="156" height="22" fill="white"/>
</clipPath>
</defs>
</svg>
