<svg width="136" height="16" viewBox="0 0 136 16" fill="none" xmlns="http://www.w3.org/2000/svg">
<g clip-path="url(#clip0_8_2)">
<path d="M0.552 16V15.496L1.032 15.328C1.32 15.248 1.52 15.112 1.632 14.92C1.744 14.712 1.808 14.432 1.824 14.08V2.008C1.808 1.672 1.752 1.416 1.656 1.24C1.56 1.048 1.36 0.903999 1.056 0.808L0.552 0.639999V0.136H11.976L12.144 3.976H11.472L10.512 1.816C10.384 1.512 10.24 1.28 10.08 1.12C9.92 0.943999 9.68 0.855999 9.36 0.855999H5.28C5.264 1.848 5.256 2.872 5.256 3.928C5.256 4.968 5.256 6.144 5.256 7.456H7.632C7.952 7.456 8.192 7.376 8.352 7.216C8.528 7.04 8.688 6.808 8.832 6.52L9.24 5.608H9.768V10.048H9.24L8.808 9.136C8.68 8.848 8.536 8.616 8.376 8.44C8.216 8.264 7.976 8.176 7.656 8.176H5.256C5.256 9.328 5.256 10.32 5.256 11.152C5.256 11.984 5.256 12.728 5.256 13.384C5.272 14.024 5.28 14.656 5.28 15.28H9.888C10.208 15.28 10.456 15.2 10.632 15.04C10.808 14.864 10.952 14.624 11.064 14.32L11.952 12.16H12.624L12.456 16H0.552ZM19.9667 16.096L14.8307 1.936C14.6227 1.344 14.2147 0.96 13.6067 0.784L13.0787 0.639999V0.136H19.7267V0.615999L19.0547 0.784C18.6867 0.88 18.4787 1.048 18.4307 1.288C18.3987 1.528 18.4467 1.832 18.5747 2.2L22.0307 12.448L25.5107 2.2C25.6387 1.832 25.6947 1.528 25.6787 1.288C25.6787 1.048 25.4947 0.88 25.1267 0.784L24.5507 0.615999V0.136H28.1267V0.639999L27.5267 0.784C27.1907 0.864 26.9507 1 26.8067 1.192C26.6787 1.384 26.5587 1.648 26.4467 1.984L21.6707 16.096H19.9667ZM28.7942 16V15.496L29.2742 15.328C29.5622 15.248 29.7622 15.112 29.8742 14.92C29.9862 14.712 30.0502 14.432 30.0662 14.08V2.008C30.0502 1.672 29.9942 1.416 29.8982 1.24C29.8022 1.048 29.6022 0.903999 29.2982 0.808L28.7942 0.639999V0.136H40.2182L40.3862 3.976H39.7142L38.7542 1.816C38.6262 1.512 38.4822 1.28 38.3222 1.12C38.1622 0.943999 37.9222 0.855999 37.6022 0.855999H33.5222C33.5062 1.848 33.4982 2.872 33.4982 3.928C33.4982 4.968 33.4982 6.144 33.4982 7.456H35.8742C36.1942 7.456 36.4342 7.376 36.5942 7.216C36.7702 7.04 36.9302 6.808 37.0742 6.52L37.4822 5.608H38.0102V10.048H37.4822L37.0502 9.136C36.9222 8.848 36.7782 8.616 36.6182 8.44C36.4582 8.264 36.2182 8.176 35.8982 8.176H33.4982C33.4982 9.328 33.4982 10.32 33.4982 11.152C33.4982 11.984 33.4982 12.728 33.4982 13.384C33.5142 14.024 33.5222 14.656 33.5222 15.28H38.1302C38.4502 15.28 38.6982 15.2 38.8742 15.04C39.0502 14.864 39.1942 14.624 39.3062 14.32L40.1942 12.16H40.8662L40.6982 16H28.7942ZM42.0833 16V15.496L42.5873 15.352C42.9073 15.256 43.1073 15.12 43.1873 14.944C43.2833 14.752 43.3313 14.488 43.3313 14.152C43.3473 13.224 43.3553 12.296 43.3553 11.368C43.3553 10.44 43.3553 9.504 43.3553 8.56V7.576C43.3553 6.648 43.3553 5.72 43.3553 4.792C43.3553 3.864 43.3473 2.936 43.3313 2.008C43.3313 1.672 43.2913 1.416 43.2113 1.24C43.1313 1.048 42.9313 0.903999 42.6113 0.808L42.0833 0.639999V0.136H48.8033C50.6753 0.136 52.1153 0.495999 53.1233 1.216C54.1473 1.92 54.6593 2.912 54.6593 4.192C54.6593 4.896 54.3793 5.608 53.8193 6.328C53.2753 7.048 52.4353 7.6 51.2993 7.984L54.5633 14.344C54.8353 14.872 55.2593 15.232 55.8353 15.424L56.2913 15.52V16H52.0433L48.4673 8.512H46.7393C46.7393 9.648 46.7393 10.672 46.7393 11.584C46.7393 12.496 46.7473 13.352 46.7633 14.152C46.7633 14.472 46.8113 14.728 46.9073 14.92C47.0193 15.112 47.2273 15.248 47.5312 15.328L48.1073 15.496V16H42.0833ZM46.7393 7.816H48.0353C49.1713 7.816 50.0033 7.528 50.5313 6.952C51.0593 6.376 51.3233 5.496 51.3233 4.312C51.3233 3.128 51.0673 2.256 50.5553 1.696C50.0593 1.12 49.2513 0.831999 48.1313 0.831999H46.7633C46.7633 1.456 46.7553 2.096 46.7393 2.752C46.7393 3.392 46.7393 4.12 46.7393 4.936C46.7393 5.736 46.7393 6.696 46.7393 7.816ZM59.3439 16V15.496L60.0399 15.328C60.3599 15.248 60.5839 15.112 60.7119 14.92C60.8399 14.728 60.9119 14.472 60.9279 14.152V9.808L57.0639 1.912C56.9039 1.592 56.7519 1.352 56.6079 1.192C56.4639 1.032 56.2559 0.903999 55.9839 0.808L55.5519 0.639999V0.136H61.9119V0.639999L61.4799 0.784C61.1279 0.895999 60.9359 1.08 60.9039 1.336C60.8719 1.576 60.9439 1.888 61.1199 2.272L63.8559 8.32L66.8079 2.104C66.9519 1.816 67.0159 1.536 66.9999 1.264C66.9839 0.991999 66.8159 0.815999 66.4959 0.735999L66.1599 0.639999V0.136H69.3039V0.639999L68.8239 0.784C68.5039 0.88 68.2719 1.024 68.1279 1.216C67.9999 1.408 67.8639 1.664 67.7199 1.984L64.3839 8.92V14.152C64.3839 14.808 64.6719 15.2 65.2479 15.328L65.9679 15.496V16H59.3439Z" fill="#757575"/>
<path d="M75.712 16.096L71.56 1.96C71.448 1.608 71.32 1.344 71.176 1.168C71.032 0.992 70.792 0.848 70.456 0.735999L70.168 0.639999V0.136H76.36V0.639999L75.856 0.808C75.488 0.919999 75.248 1.08 75.136 1.288C75.04 1.496 75.04 1.784 75.136 2.152L77.752 11.992L80.608 3.472L80.176 2.08C80.064 1.744 79.952 1.488 79.84 1.312C79.728 1.12 79.544 0.967999 79.288 0.855999L78.76 0.639999V0.136H84.64V0.639999L83.968 0.855999C83.648 0.967999 83.464 1.128 83.416 1.336C83.368 1.544 83.4 1.824 83.512 2.176L86.536 12.136L89.32 2.32C89.432 1.952 89.464 1.632 89.416 1.36C89.368 1.088 89.16 0.895999 88.792 0.784L88.312 0.639999V0.136H91.864V0.639999L91.264 0.831999C90.944 0.944 90.712 1.112 90.568 1.336C90.44 1.544 90.328 1.824 90.232 2.176L86.296 16.096H84.64L81.088 4.912L77.368 16.096H75.712ZM92.6536 16V15.496L93.1336 15.328C93.4216 15.248 93.6216 15.112 93.7336 14.92C93.8456 14.712 93.9096 14.432 93.9256 14.08V2.008C93.9096 1.672 93.8536 1.416 93.7576 1.24C93.6616 1.048 93.4616 0.903999 93.1576 0.808L92.6536 0.639999V0.136H104.078L104.246 3.976H103.574L102.614 1.816C102.486 1.512 102.342 1.28 102.182 1.12C102.022 0.943999 101.782 0.855999 101.462 0.855999H97.3816C97.3656 1.848 97.3576 2.872 97.3576 3.928C97.3576 4.968 97.3576 6.144 97.3576 7.456H99.7336C100.054 7.456 100.294 7.376 100.454 7.216C100.63 7.04 100.79 6.808 100.934 6.52L101.342 5.608H101.87V10.048H101.342L100.91 9.136C100.782 8.848 100.638 8.616 100.478 8.44C100.318 8.264 100.078 8.176 99.7576 8.176H97.3576C97.3576 9.328 97.3576 10.32 97.3576 11.152C97.3576 11.984 97.3576 12.728 97.3576 13.384C97.3736 14.024 97.3816 14.656 97.3816 15.28H101.99C102.31 15.28 102.558 15.2 102.734 15.04C102.91 14.864 103.054 14.624 103.166 14.32L104.054 12.16H104.726L104.558 16H92.6536ZM105.559 16V15.496L106.207 15.304C106.543 15.208 106.799 15.064 106.975 14.872C107.167 14.68 107.319 14.416 107.431 14.08L112.279 0.0639992H114.271L119.095 14.176C119.223 14.528 119.367 14.8 119.527 14.992C119.687 15.168 119.943 15.312 120.295 15.424L120.655 15.52V16H114.559V15.52L114.967 15.4C115.319 15.288 115.527 15.112 115.591 14.872C115.671 14.632 115.655 14.336 115.543 13.984L114.535 10.888H109.231L108.199 13.936C108.087 14.288 108.055 14.576 108.103 14.8C108.151 15.024 108.351 15.2 108.703 15.328L109.231 15.496V16H105.559ZM109.471 10.192H114.319L111.967 2.968L109.471 10.192ZM121.411 16V15.496L121.915 15.352C122.235 15.256 122.435 15.12 122.515 14.944C122.611 14.752 122.659 14.488 122.659 14.152C122.675 13.224 122.683 12.296 122.683 11.368C122.683 10.44 122.683 9.504 122.683 8.56V7.576C122.683 6.648 122.683 5.72 122.683 4.792C122.683 3.864 122.675 2.936 122.659 2.008C122.659 1.672 122.619 1.416 122.539 1.24C122.459 1.048 122.259 0.903999 121.939 0.808L121.411 0.639999V0.136H128.131C130.003 0.136 131.443 0.495999 132.451 1.216C133.475 1.92 133.987 2.912 133.987 4.192C133.987 4.896 133.707 5.608 133.147 6.328C132.603 7.048 131.763 7.6 130.627 7.984L133.891 14.344C134.163 14.872 134.587 15.232 135.163 15.424L135.619 15.52V16H131.371L127.795 8.512H126.067C126.067 9.648 126.067 10.672 126.067 11.584C126.067 12.496 126.075 13.352 126.091 14.152C126.091 14.472 126.139 14.728 126.235 14.92C126.347 15.112 126.555 15.248 126.859 15.328L127.435 15.496V16H121.411ZM126.067 7.816H127.363C128.499 7.816 129.331 7.528 129.859 6.952C130.387 6.376 130.651 5.496 130.651 4.312C130.651 3.128 130.395 2.256 129.883 1.696C129.387 1.12 128.579 0.831999 127.459 0.831999H126.091C126.091 1.456 126.083 2.096 126.067 2.752C126.067 3.392 126.067 4.12 126.067 4.936C126.067 5.736 126.067 6.696 126.067 7.816Z" fill="#212121"/>
</g>
<defs>
<clipPath id="clip0_8_2">
<rect width="136" height="16" fill="white"/>
</clipPath>
</defs>
</svg>
